<svg width="100" height="100" viewBox="0 0 100 100" fill="none" xmlns="http://www.w3.org/2000/svg">
<path d="M50 8.33333C27.0417 8.33333 8.33334 27.0417 8.33334 50C8.33334 72.9583 27.0417 91.6667 50 91.6667C72.9583 91.6667 91.6667 72.9583 91.6667 50C91.6667 27.0417 72.9583 8.33333 50 8.33333ZM61.625 52.2083L46.9167 66.9167C46.2917 67.5417 45.5 67.8333 44.7083 67.8333C43.9167 67.8333 43.125 67.5417 42.5 66.9167C41.9188 66.3286 41.5929 65.5351 41.5929 64.7083C41.5929 63.8815 41.9188 63.0881 42.5 62.5L55 50L42.5 37.5C41.9188 36.9119 41.5929 36.1185 41.5929 35.2917C41.5929 34.4649 41.9188 33.6714 42.5 33.0833C43.7083 31.875 45.7083 31.875 46.9167 33.0833L61.625 47.7917C62.875 49 62.875 51 61.625 52.2083Z" fill="black"/>
</svg>
